<svg id="Layer_15" data-name="Layer 15" xmlns="http://www.w3.org/2000/svg" viewBox="0 0 952.27 1767.65"><title>Clarence</title><g id="Layer_12" data-name="Layer 12"><path d="M956,1674.36c-18.19-23.12,2.67-126.11,23.59-172.36,14.43-31.9-8.62-195.77-12-255.59,14.36-31.89-1.89-87-3.09-132.41C956,792,921.26,463.46,776,305.68c-91.92-99.87-252.7-111-335.6-2.68C324.11,455.05,286.52,751,286.52,1030c0,49.36-3.82,165.44,12.27,198,.27.54-2.16,87.46-1.89,88-11.8,72.63-32.39,171.15-18.88,201,20.92,46.25,23.49,134.58,5.29,157.71S166,1718.06,173.23,1758.53c6.68,37.11,286.58,51.06,294.77-13.49s30-117.54,27.29-168.6c-1.36-25.48,91.94-80.67,136-118.61l5.53.17,3.77.12c30.83,36.57,104.85,91.56,103.44,118-2.73,51.06,19.11,104.05,27.3,168.6s288.09,50.61,294.77,13.49C1073.4,1717.72,974.24,1697.49,956,1674.36Z" transform="translate(-128 -22.26)" style="fill:#42241a"/><path d="M929.58,1684c-16.92-23.12,12.65-137.75,32.11-184,13.42-31.9-34-180-17-199,14.17-42,12.45-127.6,11.33-173-7.9-322-68.95-664.54-204-822.32-85.48-99.87-235-111-312.07-2.68C331.8,455.05,296.84,751,296.84,1030c0,49.36-3.55,165.44,11.41,198,.25.54-2,87.46-1.75,88-11,72.63-30.12,171.15-17.56,201,19.45,46.25,21.84,134.58,4.92,157.71s-109.13,43.35-102.36,83.82c6.21,37.11,285.77,26.47,259.32-50.53-21-61.14,28.36-95.86,18.89-146-5.36-28.39,142.4-94.56,150.14-125,8.62-33.88-136.92-51-136.92-51s118.42,10.27,156.75,15c57.47,7.09,128.54-9.16,103.88-5-195.47,33-45.33,83-8.5,130,36,46,8.5,67,44.38,205,16.31,62.72,232,46.49,262.51,27C1087.28,1729,946.5,1707.12,929.58,1684Z" transform="translate(-128 -22.26)" style="fill:#542f1a"/><path d="M885,1352s-171,117-256,96c-8-2-118,70-156.7,137-3.5,6.06,57.61-88.55,36.7-137-20.45-47.4-71.92-95.83-72-96,0,0,108.12,84,161,83S885,1352,885,1352Z" transform="translate(-128 -22.26)" style="fill:#3a2116;opacity:0.43"/><path d="M436.66,1352s109.54,96,183.19,96c8.25,0,275.74-80,265.35-96,0,0-195.47,56-248.35,55S436.66,1352,436.66,1352Z" transform="translate(-128 -22.26)" style="fill:#3a2116"/><path d="M909.46,1178c7.7,34-34.57,151.26-96.43,132-87.22-27.17-164.67-120.43-138.29-167.64,31.78-56.87,103.72-87.68,104.63-105S894,1109.55,909.46,1178Z" transform="translate(-128 -22.26)" style="fill:#3a2116;opacity:0.65"/><path d="M298.79,1215c-7.7,34,34.42,153.72,96.29,134.45,87.21-27.16,164.67-120.43,138.28-167.64-31.78-56.87-103.71-87.67-104.62-105S317.31,898.23,282.74,878,314.26,1146.59,298.79,1215Z" transform="translate(-128 -22.26)" style="fill:#3a2116;opacity:0.65"/><path d="M361.12,447C231.75,626,217.93,929.92,225.75,1037.87,234,1151.56,414.65,1019,611.36,1019c224.94,0,381.59,132.79,357.88,30-31.63-137.13,21.15-388.55-105.76-602-16.05-27-130.29,175.48-253.07,170C453.66,610,373.76,429.51,361.12,447Z" transform="translate(-128 -22.26)" style="fill:#406d84"/><path d="M361.12,447C234,620,249.18,943.06,257,1051c8.24,113.69,156.29-93,353-93,224.94,0,382.71,193.79,359,91-31.63-137.13,18.19-383-104.57-597-21.16-36.89-97.32,188.85-244.58,186C457.74,634.86,361.12,447,361.12,447Z" transform="translate(-128 -22.26)" style="fill:#57919e;opacity:0.56"/><path d="M320,617s-14.83,174.9,4,200c72,96,126,218,126,218s-136,80-169.22-114.13C271.35,865.77,320,617,320,617Z" transform="translate(-128 -22.26)" style="fill:#406d84"/><path d="M904,617s37.13,171.77,27.11,184.38S793,1018.63,790.45,1026.81s-36.51-4.81-31.78-4.81c2.36,0,28.44-62,61.38-122s76.48-102,76.48-114C896.53,762,904,617,904,617Z" transform="translate(-128 -22.26)" style="fill:#406d84"/><g id="arm_left" data-name="arm left"><path d="M129.42,886.19c35.64,136.8,184.68,240.86,169.22,309.27-7.7,34,34.57,151.26,96.44,132,87.21-27.16,164.67-120.43,138.28-167.64-31.78-56.87-103.71-87.67-104.62-105s-83.7-184-118.27-204.25S345.06,471,345.06,471,107.58,802.37,129.42,886.19Z" transform="translate(-128 -22.26)" style="fill:#63391d"/><path d="M129.42,886.19c35.64,136.8,158,216.46,166.88,281.36,2.63,19.19,15.43-28.92,52.39-71.18,29.78-34,80.45-33.84,80.05-41.58-.91-17.34-83.7-184-118.27-204.25S345.06,471,345.06,471,107.58,802.37,129.42,886.19Z" transform="translate(-128 -22.26)" style="fill:#5a9baf"/><path d="M129.42,886.19C153.85,1025.43,289.1,1100.1,298,1165c2.63,19.19,3,2,10.24-29,3.19-13.71-175-183.4-167.14-260C150,789,238,632,238,632S115,804,129.42,886.19Z" transform="translate(-128 -22.26)" style="fill:#68adbc;opacity:0.49"/></g><g id="arm_right" data-name="arm right"><path d="M1078.68,846.69C1043.05,983.49,894,1087.55,909.46,1156c7.7,34-34.57,151.26-96.43,132-87.22-27.17-164.67-120.43-138.29-167.64,31.78-56.87,103.72-87.68,104.63-105s83.7-184,118.27-204.25S889,497,889,497,1100.52,762.87,1078.68,846.69Z" transform="translate(-128 -22.26)" style="fill:#63391d"/><path d="M1078.68,846.69c-35.63,136.8-131,216.18-162.6,276.89-8.41,16.15-26.89-17.73-62.27-57.57-31.8-35.81-74.88-42.51-74.44-50.72.91-17.34,83.7-184,118.27-204.25S880,481,880,481,1100.52,762.87,1078.68,846.69Z" transform="translate(-128 -22.26)" style="fill:#5a9baf"/><path d="M1078.68,845.69C1043.05,982.49,948,1063.29,916.36,1124c-8.41,16.15-40.6-15-28.33-36,3-5.17,27.74-34.64,74.6-75,68.66-59.13,103.53-172,102-192C1057.06,723,880,481,880,481S1100.52,761.87,1078.68,845.69Z" transform="translate(-128 -22.26)" style="fill:#4d8399"/></g></g><g id="Head"><g id="Ear_right" data-name="Ear right"><path d="M757.27,48.81S863.67-1.6,891.52,52.73,852,175.5,852,175.5Z" transform="translate(-128 -22.26)" style="fill:#542f1a"/><circle cx="688.03" cy="82.79" r="61.46" style="fill:#42210b"/></g><g id="Ear_left" data-name="Ear left"><path d="M318.57,188.42S234,89.6,283.82,44.16s142.35,6.57,142.35,6.57Z" transform="translate(-128 -22.26)" style="fill:#542f1a"/><circle cx="235.73" cy="88.55" r="67.22" style="fill:#42210b"/></g><path id="face" d="M711.84,29.67c-52.62-11.7-98.91,4.8-214.15,6.72-123.06,2-118.12,34.57-155.57,98C305.7,196,287.56,311.25,350.76,385c86.43,100.84,207.43,196.87,300.58,176.7C714.62,548,889.5,405.15,889.5,304.32c0-73.95-48.28-211.46-82.59-239.12C777.14,41.19,746.41,37.35,711.84,29.67Z" transform="translate(-128 -22.26)" style="fill:#63391d"/><path id="face_shadow" data-name="face shadow" d="M810.12,400.29c-48.18-168.6-352.63-102.12-370.93-14.45-3.3,15.78-92.85-.55-115.62-71.29-27-83.82,20.74-183.42,18.55-180.21-40.37,59.12-54.56,176.91,8.64,250.64,86.43,100.84,207,194.88,300.58,176.7,62.75-12.19,236.82-158.5,238.16-257.36.13-9.38-7.12-57.21-7.12-43.73C882.38,336.2,814.49,415.59,810.12,400.29Z" transform="translate(-128 -22.26)" style="fill:#542f1a"/><path id="hair" d="M396.8,57.31s41.42-31.8,56.84-34.69-5.78,12.53-5.78,12.53l45.28-7.71-27,26Z" transform="translate(-128 -22.26)" style="fill:#63391d"/><path id="Hair-2" data-name="Hair" d="M805.3,66s-41.43-31.8-56.84-34.69,5.78,12.53,5.78,12.53L709,36.11l27,26Z" transform="translate(-128 -22.26)" style="fill:#63391d"/><g id="Mouth"><path d="M796.62,386.53c-2.58,58.73-77.41,134.52-189.79,134.2-90-.27-161.74-96.77-159-141.63,3.92-63.49,51.61-68.52,106.94-83.82,26-7.2,41.27-34.69,65.52-34.69,27.94,0,33.72,24.09,66.48,31.8C727.05,301.86,798.56,342.49,796.62,386.53Z" transform="translate(-128 -22.26)" style="fill:#c69c6d"/><path d="M792.77,392.32c-.06,58.77-76.13,134.52-186.65,134.19-88.45-.27-159.06-96.77-156.34-141.63,0,0,57.84,130.15,169.61,127.17C764.36,508.2,792.78,383.92,792.77,392.32Z" transform="translate(-128 -22.26)" style="fill:#aa8561"/><path d="M603.8,460.37c-25.25-3.63-121.42-33.22-97-31.69,11.9.74,30.89,7.59,49.92,11.12,30.15,5.58,60.37,7.83,62.44,2.32,2.88-7.68,2.88-35.53,2.88-35.53S625,441.94,634.53,444c7,1.54,35.49,7.17,58.05,1.54C718.1,439.2,741.13,422,741.13,422c-3.27,16.87-46.1,37.45-65.3,38.41S621.63,462.93,603.8,460.37Z" transform="translate(-128 -22.26)"/><g id="Nose"><path d="M688.31,342.73c0,32.09-65.78,58.1-65.78,58.1s-65.78-26-65.78-58.1,29.45-58.1,65.78-58.1S688.31,310.64,688.31,342.73Z" transform="translate(-128 -22.26)"/><path d="M658.54,301c0,8.75-29.66,0-38.41,0s-38.41,11.63-38.41,2.88,29.66-15.37,38.41-15.37S658.54,292.21,658.54,301Z" transform="translate(-128 -22.26)" style="fill:#fff;opacity:0.8300000000000001"/></g></g><g id="Eye_right" data-name="Eye right"><circle cx="603.11" cy="184.38" r="59.73" style="fill:#422515"/><circle cx="598.78" cy="194.25" r="50"/><path d="M761.51,196.85c0,8.58-6,14.56-14.57,14.56a15.52,15.52,0,0,1-15.52-15.52c0-8.58,6-14.57,14.56-14.57,3.61,0,6.58,4,9.22,6.05C758.83,190.21,761.51,191.88,761.51,196.85Z" transform="translate(-128 -22.26)" style="fill:#fff"/></g><g id="Eye_left" data-name="Eye left"><circle cx="362.25" cy="186.31" r="59.73" style="fill:#422515"/><circle cx="367.35" cy="194.3" r="50"/><path d="M529.57,196.89c0,8.58-5,14.57-13.6,14.57a15.53,15.53,0,0,1-15.53-15.53c0-8.58,5-14.57,13.6-14.57,4.23,0,7.13,4.23,9.93,7S529.57,192.55,529.57,196.89Z" transform="translate(-128 -22.26)" style="fill:#fff"/></g><g id="Glasses"><path d="M326.27,151.15s185.09-32.37,210.31-12.49,43.54,52.48,8.65,143.09c-13.51,35.07-98.73,54.36-154.61,49-36-3.48-56.94-20.08-59.54-24-6.66-10-27.85-133.49-22.09-140.21S326.27,151.15,326.27,151.15Z" transform="translate(-128 -22.26)" style="fill:#fff;opacity:0.22"/><path d="M868.46,111s-187.77-6.94-210.06,16.19-36,57.9,10.87,142.93c18.14,32.91,105.2,40.46,159.83,27.53,35.21-8.33,53.68-27.62,55.73-31.87,5.23-10.84,9.46-136,2.84-141.9S868.46,111,868.46,111Z" transform="translate(-128 -22.26)" style="fill:#fff;opacity:0.22"/><path d="M897.24,105.44S703.82,90.63,651.73,127.61c-9.54,6.77-16.8,35.15-26.37,40.77-5.4,3.18-14.22,5.79-23.62,7.22-9.52.05-18.64-1.16-24.46-3.46-10.33-4.07-21.92-31-32.39-36.18-57.2-28.44-246,16.25-246,16.25S248.46,177,291.13,190c32.31,9.88,10,116.29,56.28,135.58,54.17,22.57,154.75,2.79,185.18-20.44,35.63-27.19,24.47-91.64,46.54-109.36,4.38-3.51,13.7-5.27,23.71-6.09s19.49-.46,24.37,2.33c24.56,14.08,23.55,79.48,63,100.81,33.67,18.21,136.1,22.12,186.1-8.6C919,258,880.43,156.38,910.81,141.6,950.94,122.09,897.24,105.44,897.24,105.44ZM532.88,291.76c-18.6,25.35-139.89,49.65-183.6,23.29-34.74-20.95-40.6-124.42-22.78-136.7,50.89-35.09,162.11-57.32,208.17-35.64C583.49,165.7,558.38,257,532.88,291.76ZM872.8,274.12c-39.09,32.84-162.68,27.68-185,5.53-30.59-30.37-69.58-116.66-24.92-147,42.13-28.58,155.45-23.9,211.18,2.85C893.57,144.91,903.86,248,872.8,274.12Z" transform="translate(-128 -22.26)"/></g></g><g id="Bowtie"><path d="M724.19,522.19c-28.93-12.57-76.64,27.23-93.28,28.4-9.4.67-7.11-7.62-19.26-7.7-9.35-.07-13.47,9.87-19.27,6.74-13.36-7.21-74.1-37.1-92.49-39.5-18.95-2.47-3.44,39.71-3.86,49.13-1.13,25.57-6.19,35,8.67,38.54s78.37-27.25,94.42-20.23c15.42,6.74,15.58,7.27,27.94-1s56.91,32.18,77.08,26c8.87-2.72,8.47-12.86,13.46-31C723.94,548.55,740.39,529.23,724.19,522.19Z" transform="translate(-128 -22.26)" style="fill:#a00a15"/><path d="M728.69,535.61C698.47,523,648.62,562.83,631.24,564c-9.83.66-7.44-7.62-20.13-7.71-9.77-.07-14.07,9.88-20.14,6.74-14-7.21-77.42-37.1-96.64-39.5-19.8-2.47-3.59,39.72-4,49.14-1.18,25.57-6.47,35.05,9.06,38.54S581.25,584,598,591c16.11,6.75,16.28,7.28,29.19-1s59.46,32.19,80.53,26c9.28-2.71,8.86-12.86,14.07-31C728.43,562,745.62,542.65,728.69,535.61Z" transform="translate(-128 -22.26)" style="opacity:0.15"/><path d="M724.19,529.9c-28.93-12.58-76.64,27.22-93.28,28.4-9.4.66-7.11-7.62-19.26-7.71-9.35-.07-13.47,9.88-19.27,6.75-13.36-7.22-74.1-37.11-92.49-39.5-18.95-2.48-3.44,39.71-3.86,49.13-1.13,25.57-6.19,35,8.67,38.54s78.37-27.25,94.42-20.23c15.42,6.74,15.58,7.27,27.94-1s56.91,32.19,77.08,26c8.87-2.72,8.47-12.86,13.46-31C723.94,556.25,740.39,536.94,724.19,529.9Z" transform="translate(-128 -22.26)" style="fill:#c1272d"/><path d="M508.56,542.89s77.07,19.26,81.89,18.3-4.82,8.67-2.89,7.71,2.89,4.82,2.89,4.82-71.3,17.34-74.19,17.34,65.52-19.27,65.52-19.27-46.25,1.93-49.14,1,41.43-1,44.32-3.85S508.56,542.89,508.56,542.89Z" transform="translate(-128 -22.26)" style="fill:#8c1922"/><path d="M691.61,584.31s-56.44-8.67-61.26-7.7,4.82-8.68,2.89-7.71-2.89-4.82-2.89-4.82S701.25,541,704.14,541,639,566,639,566s49.7-5.78,52.59-4.82-44.88,4.82-47.77,7.71S691.61,584.31,691.61,584.31Z" transform="translate(-128 -22.26)" style="fill:#8c1922"/></g></svg>